<svg width="256" height="36" viewBox="0 0 256 36" fill="none" xmlns="http://www.w3.org/2000/svg">
<path d="M15.504 21.008V35H13.056V21.008L0.48 1.04H2.64C2.864 1.04 3.048 1.096 3.192 1.208C3.336 1.304 3.456 1.448 3.552 1.64L13.272 17.24C13.48 17.608 13.672 17.968 13.848 18.32C14.024 18.656 14.176 18.992 14.304 19.328C14.432 18.992 14.576 18.656 14.736 18.32C14.896 17.968 15.08 17.608 15.288 17.24L25.008 1.64C25.088 1.464 25.2 1.32 25.344 1.208C25.504 1.096 25.696 1.04 25.92 1.04H28.08L15.504 21.008ZM67.4171 18.008C67.4171 20.632 67.0251 23.016 66.2411 25.16C65.4571 27.288 64.3531 29.112 62.9291 30.632C61.5051 32.136 59.7931 33.304 57.7931 34.136C55.8091 34.952 53.6171 35.36 51.2171 35.36C48.8171 35.36 46.6251 34.952 44.6411 34.136C42.6571 33.304 40.9531 32.136 39.5291 30.632C38.1051 29.112 37.0011 27.288 36.2171 25.16C35.4331 23.016 35.0411 20.632 35.0411 18.008C35.0411 15.4 35.4331 13.032 36.2171 10.904C37.0011 8.76 38.1051 6.936 39.5291 5.432C40.9531 3.912 42.6571 2.736 44.6411 1.904C46.6251 1.072 48.8171 0.655997 51.2171 0.655997C53.6171 0.655997 55.8091 1.072 57.7931 1.904C59.7931 2.72 61.5051 3.888 62.9291 5.408C64.3531 6.928 65.4571 8.76 66.2411 10.904C67.0251 13.032 67.4171 15.4 67.4171 18.008ZM64.8731 18.008C64.8731 15.64 64.5451 13.512 63.8891 11.624C63.2331 9.736 62.3051 8.136 61.1051 6.824C59.9051 5.512 58.4651 4.512 56.7851 3.824C55.1051 3.12 53.2491 2.768 51.2171 2.768C49.2011 2.768 47.3531 3.12 45.6731 3.824C43.9931 4.512 42.5451 5.512 41.3291 6.824C40.1291 8.136 39.1931 9.736 38.5211 11.624C37.8651 13.512 37.5371 15.64 37.5371 18.008C37.5371 20.392 37.8651 22.528 38.5211 24.416C39.1931 26.288 40.1291 27.88 41.3291 29.192C42.5451 30.504 43.9931 31.504 45.6731 32.192C47.3531 32.88 49.2011 33.224 51.2171 33.224C53.2491 33.224 55.1051 32.88 56.7851 32.192C58.4651 31.504 59.9051 30.504 61.1051 29.192C62.3051 27.88 63.2331 26.288 63.8891 24.416C64.5451 22.528 64.8731 20.392 64.8731 18.008ZM92.9299 33.248C94.5619 33.248 96.0179 32.968 97.2979 32.408C98.5939 31.832 99.6899 31.04 100.586 30.032C101.482 29.024 102.162 27.84 102.626 26.48C103.106 25.104 103.346 23.624 103.346 22.04V1.04H105.794V22.04C105.794 23.912 105.498 25.664 104.906 27.296C104.314 28.912 103.458 30.328 102.338 31.544C101.234 32.744 99.8819 33.688 98.2819 34.376C96.6979 35.064 94.9139 35.408 92.9299 35.408C90.9459 35.408 89.1539 35.064 87.5539 34.376C85.9699 33.688 84.6179 32.744 83.4979 31.544C82.3939 30.328 81.5459 28.912 80.9539 27.296C80.3619 25.664 80.0659 23.912 80.0659 22.04V1.04H82.5379V22.016C82.5379 23.6 82.7699 25.08 83.2339 26.456C83.7139 27.816 84.3939 29 85.2739 30.008C86.1699 31.016 87.2579 31.808 88.5379 32.384C89.8339 32.96 91.2979 33.248 92.9299 33.248ZM142.733 3.128H130.805V35H128.333V3.128H116.333V1.04H142.733V3.128ZM166.162 33.248C167.794 33.248 169.25 32.968 170.53 32.408C171.826 31.832 172.922 31.04 173.818 30.032C174.714 29.024 175.394 27.84 175.858 26.48C176.338 25.104 176.578 23.624 176.578 22.04V1.04H179.026V22.04C179.026 23.912 178.73 25.664 178.138 27.296C177.546 28.912 176.69 30.328 175.57 31.544C174.466 32.744 173.114 33.688 171.514 34.376C169.93 35.064 168.146 35.408 166.162 35.408C164.178 35.408 162.386 35.064 160.786 34.376C159.202 33.688 157.85 32.744 156.73 31.544C155.626 30.328 154.778 28.912 154.186 27.296C153.594 25.664 153.298 23.912 153.298 22.04V1.04H155.77V22.016C155.77 23.6 156.002 25.08 156.466 26.456C156.946 27.816 157.626 29 158.506 30.008C159.402 31.016 160.49 31.808 161.77 32.384C163.066 32.96 164.53 33.248 166.162 33.248ZM220.093 1.04V35H218.941C218.733 35 218.557 34.968 218.413 34.904C218.285 34.824 218.157 34.696 218.029 34.52L195.973 5.048C196.021 5.528 196.045 5.984 196.045 6.416V35H193.885V1.04H195.109C195.333 1.04 195.501 1.072 195.613 1.136C195.741 1.184 195.877 1.304 196.021 1.496L218.029 30.896C217.981 30.416 217.957 29.96 217.957 29.528V1.04H220.093ZM255.799 32.96L255.751 35H235.399V1.04H255.751V3.08H237.871V16.808H252.751V18.8H237.871V32.96H255.799Z" fill="url(#paint0_linear_89_35)"/>
<defs>
<linearGradient id="paint0_linear_89_35" x1="-4.82425e-07" y1="16" x2="259" y2="16" gradientUnits="userSpaceOnUse">
<stop stop-color="#3647E5"/>
<stop offset="1" stop-color="#D72FB2"/>
</linearGradient>
</defs>
</svg>
